<svg width="635" height="447" viewBox="0 0 635 447" fill="none" xmlns="http://www.w3.org/2000/svg">
<g clip-path="url(#clip0)">
<path d="M94.5294 334.249C130.68 347.448 153.04 370.965 153.04 370.965C153.04 370.965 172.88 389.524 179.571 413.516C186.262 437.508 195.352 462.575 195.352 462.575L610.843 462.575L526.291 305.385C516.153 283.097 546.689 219.273 570.33 162.418C582.823 132.373 597.354 99.6026 574.683 81.8364C535.417 65.064 506.86 100.238 487.505 129.587C478.777 140.125 454.363 196.728 454.363 196.728C441.914 168.64 400.616 136.024 373.466 123.426C334.23 105.22 297.507 112.233 297.507 112.233C248.982 118.118 227.413 131.587 195.657 169.116C164.644 205.768 163.578 282.268 163.578 282.268C167.222 286.842 153.436 276.417 148.615 273.107C130.828 260.898 109.082 247.967 86.8851 246.768C68.7662 245.789 45.9348 245.577 31.3896 258.276C15.8795 271.817 9.91177 308.377 35.3949 317.821C60.878 327.264 58.3786 321.049 94.5294 334.249Z" fill="white"/>
<path d="M454.363 196.728C441.914 168.64 400.616 136.024 373.466 123.426C334.23 105.22 297.507 112.233 297.507 112.233C248.982 118.118 227.413 131.587 195.657 169.116C164.644 205.768 163.578 282.268 163.578 282.268C167.222 286.842 153.436 276.417 148.615 273.107C130.828 260.898 109.082 247.967 86.8851 246.768C68.7662 245.789 45.9348 245.577 31.3896 258.275C15.8795 271.817 9.91177 308.377 35.3949 317.821C60.878 327.264 58.3786 321.049 94.5294 334.249C130.68 347.448 153.04 370.965 153.04 370.965C153.04 370.965 172.88 389.524 179.571 413.516C186.262 437.508 195.352 462.575 195.352 462.575L610.843 462.575L526.291 305.385C516.153 283.097 546.689 219.273 570.33 162.418C582.823 132.373 597.354 99.6026 574.683 81.8364C535.417 65.064 506.86 100.238 487.505 129.587C478.777 140.125 454.363 196.728 454.363 196.728ZM454.363 196.728C455.584 192.494 452.531 200.735 454.363 196.728Z" stroke="black" stroke-width="14" stroke-linecap="round" stroke-linejoin="round"/>
<circle cx="363.198" cy="180.963" r="8" transform="rotate(3.09241 363.198 180.963)" fill="black"/>
<ellipse cx="235.71" cy="213.775" rx="8" ry="7.99999" transform="rotate(3.09241 235.71 213.775)" fill="black"/>
<path d="M293.059 257.323C291.745 285.423 303.8 328.401 303.8 328.401C318.377 378.27 341.91 388.975 349.833 388.243C357.755 387.512 374.383 386.709 369.013 313.824C367.822 297.661 367.495 260.183 369.013 244.175C369.013 244.175 282.739 257.914 263.139 263.956" stroke="black" stroke-width="14" stroke-linecap="round" stroke-linejoin="round"/>
<path d="M410.697 67.5362L420.858 98.7844C421.175 99.7575 422.175 100.335 423.176 100.122L455.318 93.2978C465.327 91.1725 473.027 83.1557 474.747 73.0687C476.312 63.893 467.875 56.1664 458.872 58.5303L444.238 62.3727C443.708 62.512 443.164 62.1981 443.019 61.6692L439.03 47.0748C436.576 38.096 425.666 34.6524 418.502 40.5952C410.626 47.1283 407.533 57.8051 410.697 67.5362Z" fill="#EFB7C5" stroke="black" stroke-width="14"/>
</g>
<defs>
<clipPath id="clip0">
<rect width="610.733" height="452.68" fill="white" transform="translate(24.4204) rotate(3.09241)"/>
</clipPath>
</defs>
</svg>
