<svg width="415" height="120" viewBox="0 0 415 120" fill="none" xmlns="http://www.w3.org/2000/svg">
<g clip-path="url(#clip0)">
<path d="M59.5394 89.4151L90.6402 71.887C93.1175 70.4908 93.9422 67.439 92.4821 65.0705C91.1442 62.9003 88.3498 62.0547 85.9823 63.0077L96.2414 57.2257C99.1605 55.5806 100.132 51.9845 98.4118 49.1938C96.6914 46.403 92.9303 45.4743 90.0112 47.1195L96.208 43.627C99.1271 41.9818 100.099 38.3858 98.3784 35.595C96.658 32.8043 92.8969 31.8756 89.9778 33.5208L83.781 37.0132C86.7001 35.3681 87.6718 31.772 85.9514 28.9812C84.2309 26.1905 80.4698 25.2618 77.5507 26.907L38.1826 49.0944L46.3215 33.255C48.2203 29.5599 45.6831 25.1878 41.3991 24.7729C38.9892 24.5395 36.6588 25.6739 35.4383 27.6744L26.6554 44.3386L23.2841 50.8812C18.4868 60.1913 18.9703 71.3108 24.567 80.3894C31.8279 92.1675 47.4856 96.2084 59.5394 89.4151Z" fill="white"/>
<path fill-rule="evenodd" clip-rule="evenodd" d="M96.5982 36.5984C95.492 34.804 93.023 34.1486 91.0503 35.2604L58.4258 53.6472C57.4426 54.2013 56.1654 53.8717 55.5731 52.9109C54.9808 51.9502 55.2978 50.7221 56.281 50.168L82.7087 35.2737C84.6814 34.1619 85.2774 31.779 84.1712 29.9846C83.065 28.1902 80.596 27.5348 78.6232 28.6466L33.1964 54.2487L44.4566 32.3348C45.71 29.8956 44.0495 27.0441 41.2309 26.7711C39.6396 26.617 38.0894 27.3586 37.2629 28.6718L28.5113 45.2768L25.1483 51.8035C20.664 60.506 21.1159 70.8999 26.3474 79.3861C33.016 90.2034 47.3965 93.9147 58.4671 87.6755L89.5679 70.1475C91.0988 69.2846 91.5478 67.446 90.7019 66.0739C89.9461 64.8478 88.3515 64.3055 86.9234 64.8214L77.0831 70.3672L77.009 70.2469L70.763 73.6943C69.7745 74.2399 68.5002 73.8993 67.9167 72.9337C67.3332 71.968 67.6615 70.743 68.6499 70.1974L84.3372 61.539C84.5596 61.4162 84.7867 61.3058 85.0174 61.2076L95.1691 55.4862C97.1418 54.3744 97.7378 51.9916 96.6316 50.1971C95.5254 48.4027 93.0564 47.7473 91.0837 48.8591L64.6561 63.7534C63.6728 64.3076 62.3956 63.9779 61.8033 63.0172C61.2111 62.0564 61.528 60.8284 62.5112 60.2742L95.1357 41.8875C97.1084 40.7757 97.7044 38.3928 96.5982 36.5984ZM97.2548 45.3811L97.2805 45.3666C101.146 43.1881 102.494 38.3788 100.159 34.5917C97.8242 30.8046 92.771 29.6026 88.9055 31.7812L88.8798 31.7957C88.8466 30.4981 88.4766 29.186 87.7318 27.9779C85.3971 24.1908 80.3439 22.9889 76.4784 25.1674L43.1691 43.9401L48.1867 34.1754C50.7308 29.2242 47.3169 23.3316 41.5676 22.7748C38.3578 22.4639 35.2648 23.9716 33.6428 26.6304L33.6111 26.6825L24.7998 43.4005L21.4202 49.959C16.3099 59.8766 16.8248 71.7217 22.7868 81.3928C30.64 94.1317 47.5748 98.5022 60.6119 91.1547L91.7127 73.6266C95.1364 71.697 96.3368 67.432 94.2625 64.0672C93.7084 63.1684 92.9817 62.4336 92.1488 61.8764L97.3139 58.9654C101.179 56.7868 102.527 51.9775 100.192 48.1904C99.4475 46.9823 98.4261 46.0373 97.2548 45.3811Z" fill="black"/>
<path d="M53.2012 17.2652L59.1383 22.5364C59.7203 23.0531 60.5967 23.0531 61.1787 22.5364L67.1158 17.2652C68.2947 16.2185 68.707 14.5538 68.1529 13.0779C67.1862 10.5031 63.893 9.77003 61.9254 11.6916L60.342 13.238C60.24 13.3377 60.077 13.3377 59.975 13.238L58.3916 11.6916C56.424 9.77004 53.1308 10.5031 52.1641 13.0779C51.61 14.5538 52.0223 16.2185 53.2012 17.2652Z" fill="#EFB7C5"/>
<path fill-rule="evenodd" clip-rule="evenodd" d="M66.0856 13.7962C65.6376 12.6028 64.1111 12.263 63.1992 13.1536L61.6158 14.7L56.8097 13.1536M60.3435 10.2296C63.3666 7.27709 68.4267 8.40348 69.912 12.3596C70.7634 14.6273 70.1299 17.1851 68.3185 18.7934L62.3814 24.0646C61.0254 25.2685 58.9834 25.2685 57.6274 24.0646L51.6903 18.7934C49.879 17.1851 49.2455 14.6273 50.0968 12.3596C51.5821 8.40348 56.6422 7.27709 59.6654 10.2296L60.0044 10.5607L60.3435 10.2296ZM56.8097 13.1536C55.8977 12.263 54.3713 12.6028 53.9232 13.7962C53.6664 14.4803 53.8575 15.2519 54.4039 15.737L60.0044 20.7094L65.6049 15.737C66.1513 15.2519 66.3425 14.4803 66.0856 13.7962M56.8097 13.1536L58.393 14.7ZM56.8097 13.1536L58.393 14.7ZM61.6158 14.7C60.7198 15.5751 59.2891 15.5751 58.393 14.7L56.8097 13.1536M56.8097 13.1536L61.6158 14.7Z" fill="black"/>
<path d="M70.386 101.206L97.5367 79.1176C99.7268 77.3358 99.9919 74.1939 98.1286 72.1C96.4212 70.1814 93.5165 69.8066 91.355 71.1337L100.425 63.755C103.006 61.6555 103.318 57.9534 101.122 55.4861C98.9269 53.0188 95.0549 52.7207 92.4742 54.8202L97.9527 50.3633C100.533 48.2638 100.846 44.5616 98.6501 42.0944C96.4546 39.6271 92.5826 39.329 90.0019 41.4285L84.5234 45.8855C87.1041 43.7859 87.4164 40.0838 85.2208 37.6166C83.0253 35.1493 79.1533 34.8512 76.5726 36.9507L41.7679 65.2654L46.9449 48.3261C48.1526 44.3743 44.8688 40.4831 40.5739 40.7769C38.1578 40.9421 36.0654 42.4419 35.2219 44.6129L29.5584 62.4705L27.438 69.38C24.3619 79.4039 26.7984 90.2729 33.9141 98.2693C43.2098 108.715 59.5388 110.03 70.386 101.206Z" fill="white"/>
<path fill-rule="evenodd" clip-rule="evenodd" d="M97.0647 43.384C95.6288 41.7704 93.0764 41.559 91.3602 42.9551L62.5175 66.4197C61.6419 67.1319 60.324 67.0258 59.5737 66.1827C58.8234 65.3395 58.9249 64.0786 59.8004 63.3664L83.1647 44.3588C84.8808 42.9626 85.0713 40.5198 83.6354 38.9062C82.1995 37.2926 79.6471 37.0812 77.9309 38.4773L37.7966 71.1278L44.9406 47.7524C45.7393 45.1391 43.5744 42.5762 40.7372 42.7702C39.1519 42.8787 37.7731 43.8539 37.1994 45.27L31.5563 63.0634L29.4413 69.9558C26.5638 79.3324 28.8429 89.4996 35.4992 96.9796C44.0446 106.583 59.0557 107.791 69.0273 99.6789L96.178 77.5909C97.5036 76.5125 97.6468 74.63 96.5431 73.3897C95.5588 72.2835 93.886 72.0301 92.5942 72.7573L83.8976 79.8323L83.8029 79.7259L78.2676 84.1467C77.3854 84.8513 76.0684 84.7339 75.326 83.8843C74.5836 83.0348 74.697 81.7749 75.5793 81.0703L89.4809 69.9675C89.6786 69.8097 89.883 69.6632 90.0932 69.5282L99.0663 62.2283C100.782 60.8322 100.973 58.3894 99.537 56.7757C98.101 55.1621 95.5487 54.9507 93.8325 56.3469L70.4682 75.3544C69.5927 76.0667 68.2748 75.9606 67.5245 75.1174C66.7742 74.2743 66.8757 73.0134 67.7512 72.3011L96.594 48.8366C98.3101 47.4405 98.5006 44.9977 97.0647 43.384ZM99.2874 51.9091L99.311 51.8899C102.756 49.087 103.19 44.1256 100.235 40.8047C97.28 37.4838 92.0885 37.099 88.6432 39.9018L88.6196 39.9211C88.3585 38.6374 87.7581 37.397 86.8059 36.3269C83.8507 33.006 78.6592 32.6211 75.2139 35.424L45.7388 59.403L48.9488 48.8997C50.5656 43.6094 46.1628 38.39 40.4102 38.7835C37.1824 39.0042 34.3904 41.0062 33.2643 43.9046L33.2421 43.9617L27.5602 61.8776L25.4344 68.8043C22.1596 79.4754 24.7535 91.0462 32.3287 99.5589C42.3747 110.848 60.0217 112.269 71.7443 102.732L98.895 80.6442C101.95 78.1591 102.337 73.7579 99.7136 70.8104C99.0041 70.013 98.1492 69.4064 97.2189 68.9949L101.783 65.2816C105.229 62.4788 105.663 57.5173 102.707 54.1964C101.755 53.1263 100.571 52.3611 99.2874 51.9091Z" fill="black"/>
<path d="M132.237 84.7319V35.2681H146.701V52.7033L161.703 35.2681H178.166L160.702 55.5452L179.397 84.7319H164.011L151.778 64.7621L146.701 70.4458V84.7319H132.237Z" fill="black"/>
<path d="M204.001 85.5C199.385 85.5 195.308 84.7575 191.769 83.2726C188.281 81.7364 185.537 79.509 183.537 76.5904C181.537 73.6205 180.537 69.9849 180.537 65.6837V35.2681H195V64.1476C195 70.1898 198.001 73.2108 204.001 73.2108C206.873 73.2108 209.079 72.4684 210.618 70.9834C212.156 69.4985 212.926 67.2199 212.926 64.1476V35.2681H227.389V65.6837C227.389 69.9849 226.389 73.6205 224.389 76.5904C222.44 79.509 219.696 81.7364 216.157 83.2726C212.669 84.7575 208.617 85.5 204.001 85.5Z" fill="black"/>
<path d="M258.582 85.5C250.427 85.5 244.246 83.2726 240.041 78.8178C235.886 74.363 233.809 68.3464 233.809 60.7681C233.809 55.3404 234.681 50.6807 236.425 46.7892C238.22 42.8464 240.938 39.8253 244.58 37.7259C248.221 35.5753 252.863 34.5 258.505 34.5C261.377 34.5 263.993 34.7304 266.352 35.1913C268.762 35.6009 270.993 36.1642 273.045 36.881V44.1777C270.993 43.3584 268.788 42.744 266.429 42.3343C264.121 41.8735 261.685 41.6431 259.12 41.6431C252.965 41.6431 248.606 43.2816 246.042 46.5587C243.528 49.8358 242.272 54.5723 242.272 60.7681C242.272 66.5542 243.657 70.9578 246.426 73.9789C249.196 76.9488 253.478 78.4337 259.274 78.4337C261.633 78.4337 263.993 78.2545 266.352 77.8961C268.762 77.4864 271.019 76.872 273.122 76.0527V83.4262C271.07 84.0919 268.839 84.6039 266.429 84.9624C264.069 85.3208 261.454 85.5 258.582 85.5Z" fill="black"/>
<path d="M281.252 84.7319V35.2681H289.638V78.2801H315.026V84.7319H281.252Z" fill="black"/>
<path d="M320.21 84.7319L339.136 35.2681H348.522L367.293 84.7319H358.677L353.753 71.9819H333.827L328.904 84.7319H320.21ZM335.135 65.5301H352.368L343.752 42.872L335.135 65.5301Z" fill="black"/>
<path d="M375.54 84.7319V35.2681H397.62C401.415 35.2681 404.544 35.9849 407.006 37.4187C409.467 38.8524 411.288 40.8238 412.468 43.3328C413.647 45.7907 414.237 48.6069 414.237 51.7816C414.237 56.6973 412.699 60.6401 409.621 63.6099C406.595 66.5798 402.492 68.0648 397.312 68.0648H383.926V84.7319H375.54ZM383.926 61.4593H395.773C399.107 61.4593 401.62 60.5889 403.313 58.8479C405.005 57.1069 405.852 54.7515 405.852 51.7816C405.852 48.6069 405.031 46.1491 403.39 44.4081C401.8 42.6672 399.389 41.7967 396.158 41.7967H383.926V61.4593Z" fill="black"/>
</g>
<defs>
<clipPath id="clip0">
<rect width="414.237" height="120" fill="white"/>
</clipPath>
</defs>
</svg>
