<svg width="491" height="278" viewBox="0 0 491 278" fill="none" xmlns="http://www.w3.org/2000/svg">
<g clip-path="url(#clip0)">
<path d="M467.388 172.86C448.361 198.863 364.78 226.424 364.78 226.424C364.78 226.424 349.754 240.816 344.846 259.25C339.938 277.684 333.203 296.963 333.203 296.963L15.0077 300.712L78.3417 179.568C85.905 162.408 59.8182 144.678 41.2001 101.351C31.3613 78.4541 28.9215 54.3889 46.1232 40.5784C76.0431 27.3793 89.4882 56.5517 104.576 78.8536C112.027 95.9469 126.627 104.372 126.627 104.372C135.907 82.7494 173.06 48.7322 193.739 38.8393C223.622 24.5427 251.809 29.582 251.809 29.582C289.024 33.6515 305.664 43.7716 330.322 72.2257C354.403 100.015 355.91 158.592 355.91 158.592C380.031 158.307 403.548 137.649 420.936 127.489C461.739 103.647 486.416 146.857 467.388 172.86Z" fill="white"/>
<path d="M355.91 158.592C380.031 158.307 403.548 137.649 420.936 127.489C461.74 103.647 486.416 146.857 467.388 172.86C448.361 198.863 364.78 226.424 364.78 226.424C364.78 226.424 349.754 240.816 344.846 259.25C339.938 277.684 333.203 296.963 333.203 296.963L15.0077 300.712L78.3417 179.568C85.905 162.408 59.8182 144.678 41.2001 101.351C31.3613 78.4541 28.9215 54.3889 46.1232 40.5784C76.0431 27.3793 89.4882 56.5517 104.576 78.8536C112.027 95.9469 126.627 104.372 126.627 104.372M355.91 158.592C352.247 161.17 353.16 162.128 355.91 158.592ZM355.91 158.592C355.91 158.592 354.403 100.015 330.322 72.2257C305.664 43.7716 289.024 33.6515 251.809 29.582C251.809 29.582 223.622 24.5427 193.739 38.8393C173.06 48.7322 135.907 82.7494 126.627 104.372M126.627 104.372C125.654 101.141 128.066 107.424 126.627 104.372Z" stroke="black" stroke-width="14" stroke-linecap="round" stroke-linejoin="round"/>
<path d="M253.927 147.073C255.187 168.582 246.343 201.604 246.343 201.604C235.63 239.927 217.704 248.337 211.63 247.849C205.556 247.36 192.814 246.895 196.27 191.029C197.036 178.64 196.948 149.935 195.641 137.69C195.641 137.69 261.836 147.433 276.901 151.883" stroke="black" stroke-width="14" stroke-linecap="round" stroke-linejoin="round"/>
<path d="M297.624 83.6656C299.969 81.6156 301.142 80.5906 302.24 80.9725C303.338 81.3543 303.622 82.8859 304.189 85.949L306.132 96.4375C306.216 96.8931 306.258 97.1209 306.35 97.3314C306.442 97.5418 306.581 97.7276 306.857 98.0992L313.481 106.988C315.079 109.132 315.878 110.204 315.53 111.206C315.181 112.208 313.89 112.553 311.306 113.242L300.596 116.102C300.148 116.222 299.924 116.282 299.722 116.39C299.519 116.498 299.345 116.65 298.996 116.955L290.964 123.974C288.618 126.024 287.445 127.049 286.347 126.667C285.249 126.286 284.966 124.754 284.398 121.691L282.456 111.202C282.371 110.747 282.329 110.519 282.237 110.309C282.145 110.098 282.007 109.912 281.73 109.541L275.106 100.652C273.508 98.5078 272.709 97.4357 273.058 96.434C273.406 95.4323 274.698 95.0873 277.282 94.3974L287.992 91.5375C288.439 91.418 288.663 91.3582 288.866 91.2502C289.068 91.1423 289.243 90.9898 289.592 90.6849L297.624 83.6656Z" fill="#F6DEA2" stroke="black" stroke-width="8"/>
<path d="M207.202 67.008C209.548 64.9581 210.721 63.9331 211.819 64.3149C212.917 64.6968 213.2 66.2283 213.768 69.2915L215.71 79.78C215.795 80.2356 215.837 80.4634 215.929 80.6739C216.021 80.8843 216.159 81.0701 216.436 81.4416L223.06 90.3302C224.658 92.4745 225.457 93.5467 225.108 94.5484C224.76 95.5501 223.468 95.895 220.884 96.585L210.175 99.4448C209.727 99.5644 209.503 99.6241 209.3 99.7321C209.098 99.8401 208.923 99.9926 208.574 100.297L200.542 107.317C198.197 109.367 197.024 110.392 195.926 110.01C194.828 109.628 194.544 108.096 193.977 105.033L192.034 94.5449C191.95 94.0892 191.908 93.8614 191.816 93.651C191.724 93.4405 191.585 93.2548 191.309 92.8832L184.685 83.9946C183.087 81.8503 182.288 80.7781 182.636 79.7765C182.985 78.7748 184.276 78.4298 186.86 77.7399L197.57 74.88C198.018 74.7605 198.242 74.7007 198.444 74.5927C198.647 74.4847 198.821 74.3323 199.17 74.0273L207.202 67.008Z" fill="#F6DEA2" stroke="black" stroke-width="8"/>
</g>
<defs>
<clipPath id="clip0">
<rect width="472.816" height="286.863" fill="white" transform="matrix(-0.997839 0.0657056 0.0657056 0.997839 472.037 0.417175)"/>
</clipPath>
</defs>
</svg>
